<svg xmlns="http://www.w3.org/2000/svg" id="0b92d602bf098d8016370270dcfd46ab14487d059b126d58fc5635a3441d858bb4ff6964b8e68c13fcb0b755539f16f80f70887a00ad57349804172151642026" height="200" width="320">
      <title>Click to pause/unpause, press and hold to scroll through animation</title>
        <g>
          <path d="M0,200 h0.0 v-5.0 h-0.0 Z" fill="black" stroke="none" fill-opacity="0.2"/>
          <polyline points="16.00 20.00 14.40 6.28" stroke="rgb(255, 0, 0)" fill="none" stroke-width="1.00"/>
<polyline points="16.00 20.00 30.20 18.63" stroke="rgb(0, 255, 0)" fill="none" stroke-width="1.00"/>
<polyline points="16.00 20.00 17.65 23.88" stroke="rgb(0, 0, 255)" fill="none" stroke-width="1.00"/>
<polyline points="133.75 113.39 146.91 131.71" stroke="black" fill="none" stroke-width="1.00"/>
<polyline points="171.96 107.30 187.38 124.75" stroke="black" fill="none" stroke-width="1.00"/>
<polyline points="132.88 75.48 146.45 91.73" stroke="black" fill="none" stroke-width="1.00"/>
<polyline points="172.35 70.09 188.32 85.55" stroke="black" fill="none" stroke-width="1.00"/>
<polyline points="133.75 113.39 171.96 107.30" stroke="black" fill="none" stroke-width="1.00"/>
<polyline points="146.91 131.71 187.38 124.75" stroke="black" fill="none" stroke-width="1.00"/>
<polyline points="132.88 75.48 172.35 70.09" stroke="black" fill="none" stroke-width="1.00"/>
<polyline points="146.45 91.73 188.32 85.55" stroke="black" fill="none" stroke-width="1.00"/>
<polyline points="133.75 113.39 132.88 75.48" stroke="black" fill="none" stroke-width="1.00"/>
<polyline points="146.91 131.71 146.45 91.73" stroke="black" fill="none" stroke-width="1.00"/>
<polyline points="171.96 107.30 172.35 70.09" stroke="black" fill="none" stroke-width="1.00"/>
<polyline points="187.38 124.75 188.32 85.55" stroke="black" fill="none" stroke-width="1.00"/>
<polyline points="236.19 88.28 244.57 98.75 245.09 110.31 236.62 121.84 218.99 131.91 193.59 139.00 163.46 141.89 132.83 140.04 106.06 133.79 86.53 124.26" stroke="black" fill="none" stroke-width="0.20"/>
<polyline points="221.85 94.90 223.75 59.15 252.49 80.76 249.46 119.35 221.85 94.90" stroke="black" fill="none" stroke-width="1.00"/>
          <animate
              attributeName="display"
              values="none;inline;none;none"
              keyTimes="0;0.0;0.1;1"
              dur="3s"
              begin="0s"
              repeatCount="indefinite" />
     </g>
    
<g>
          <path d="M0,200 h32.0 v-5.0 h-32.0 Z" fill="black" stroke="none" fill-opacity="0.2"/>
          <polyline points="16.00 20.00 14.40 6.28" stroke="rgb(255, 0, 0)" fill="none" stroke-width="1.00"/>
<polyline points="16.00 20.00 30.20 18.63" stroke="rgb(0, 255, 0)" fill="none" stroke-width="1.00"/>
<polyline points="16.00 20.00 17.65 23.88" stroke="rgb(0, 0, 255)" fill="none" stroke-width="1.00"/>
<polyline points="133.75 113.39 146.91 131.71" stroke="black" fill="none" stroke-width="1.00"/>
<polyline points="171.96 107.30 187.38 124.75" stroke="black" fill="none" stroke-width="1.00"/>
<polyline points="132.88 75.48 146.45 91.73" stroke="black" fill="none" stroke-width="1.00"/>
<polyline points="172.35 70.09 188.32 85.55" stroke="black" fill="none" stroke-width="1.00"/>
<polyline points="133.75 113.39 171.96 107.30" stroke="black" fill="none" stroke-width="1.00"/>
<polyline points="146.91 131.71 187.38 124.75" stroke="black" fill="none" stroke-width="1.00"/>
<polyline points="132.88 75.48 172.35 70.09" stroke="black" fill="none" stroke-width="1.00"/>
<polyline points="146.45 91.73 188.32 85.55" stroke="black" fill="none" stroke-width="1.00"/>
<polyline points="133.75 113.39 132.88 75.48" stroke="black" fill="none" stroke-width="1.00"/>
<polyline points="146.91 131.71 146.45 91.73" stroke="black" fill="none" stroke-width="1.00"/>
<polyline points="171.96 107.30 172.35 70.09" stroke="black" fill="none" stroke-width="1.00"/>
<polyline points="187.38 124.75 188.32 85.55" stroke="black" fill="none" stroke-width="1.00"/>
<polyline points="236.19 88.28 244.57 98.75 245.09 110.31 236.62 121.84 218.99 131.91 193.59 139.00 163.46 141.89 132.83 140.04 106.06 133.79 86.53 124.26" stroke="black" fill="none" stroke-width="0.20"/>
<polyline points="238.01 104.23 240.51 67.37 252.10 92.46 248.93 132.52 238.01 104.23" stroke="black" fill="none" stroke-width="1.00"/>
          <animate
              attributeName="display"
              values="none;inline;none;none"
              keyTimes="0;0.1;0.2;1"
              dur="3s"
              begin="0s"
              repeatCount="indefinite" />
     </g>
    
<g>
          <path d="M0,200 h64.0 v-5.0 h-64.0 Z" fill="black" stroke="none" fill-opacity="0.2"/>
          <polyline points="16.00 20.00 14.40 6.28" stroke="rgb(255, 0, 0)" fill="none" stroke-width="1.00"/>
<polyline points="16.00 20.00 30.20 18.63" stroke="rgb(0, 255, 0)" fill="none" stroke-width="1.00"/>
<polyline points="16.00 20.00 17.65 23.88" stroke="rgb(0, 0, 255)" fill="none" stroke-width="1.00"/>
<polyline points="133.75 113.39 146.91 131.71" stroke="black" fill="none" stroke-width="1.00"/>
<polyline points="171.96 107.30 187.38 124.75" stroke="black" fill="none" stroke-width="1.00"/>
<polyline points="132.88 75.48 146.45 91.73" stroke="black" fill="none" stroke-width="1.00"/>
<polyline points="172.35 70.09 188.32 85.55" stroke="black" fill="none" stroke-width="1.00"/>
<polyline points="133.75 113.39 171.96 107.30" stroke="black" fill="none" stroke-width="1.00"/>
<polyline points="146.91 131.71 187.38 124.75" stroke="black" fill="none" stroke-width="1.00"/>
<polyline points="132.88 75.48 172.35 70.09" stroke="black" fill="none" stroke-width="1.00"/>
<polyline points="146.45 91.73 188.32 85.55" stroke="black" fill="none" stroke-width="1.00"/>
<polyline points="133.75 113.39 132.88 75.48" stroke="black" fill="none" stroke-width="1.00"/>
<polyline points="146.91 131.71 146.45 91.73" stroke="black" fill="none" stroke-width="1.00"/>
<polyline points="171.96 107.30 172.35 70.09" stroke="black" fill="none" stroke-width="1.00"/>
<polyline points="187.38 124.75 188.32 85.55" stroke="black" fill="none" stroke-width="1.00"/>
<polyline points="236.19 88.28 244.57 98.75 245.09 110.31 236.62 121.84 218.99 131.91 193.59 139.00 163.46 141.89 132.83 140.04 106.06 133.79 86.53 124.26" stroke="black" fill="none" stroke-width="0.20"/>
<polyline points="248.01 115.77 250.95 77.58 241.74 104.03 238.80 145.50 248.01 115.77" stroke="black" fill="none" stroke-width="1.00"/>
          <animate
              attributeName="display"
              values="none;inline;none;none"
              keyTimes="0;0.2;0.30000000000000004;1"
              dur="3s"
              begin="0s"
              repeatCount="indefinite" />
     </g>
    
<g>
          <path d="M0,200 h96.00000000000001 v-5.0 h-96.00000000000001 Z" fill="black" stroke="none" fill-opacity="0.2"/>
          <polyline points="16.00 20.00 14.40 6.28" stroke="rgb(255, 0, 0)" fill="none" stroke-width="1.00"/>
<polyline points="16.00 20.00 30.20 18.63" stroke="rgb(0, 255, 0)" fill="none" stroke-width="1.00"/>
<polyline points="16.00 20.00 17.65 23.88" stroke="rgb(0, 0, 255)" fill="none" stroke-width="1.00"/>
<polyline points="133.75 113.39 146.91 131.71" stroke="black" fill="none" stroke-width="1.00"/>
<polyline points="171.96 107.30 187.38 124.75" stroke="black" fill="none" stroke-width="1.00"/>
<polyline points="132.88 75.48 146.45 91.73" stroke="black" fill="none" stroke-width="1.00"/>
<polyline points="172.35 70.09 188.32 85.55" stroke="black" fill="none" stroke-width="1.00"/>
<polyline points="133.75 113.39 171.96 107.30" stroke="black" fill="none" stroke-width="1.00"/>
<polyline points="146.91 131.71 187.38 124.75" stroke="black" fill="none" stroke-width="1.00"/>
<polyline points="132.88 75.48 172.35 70.09" stroke="black" fill="none" stroke-width="1.00"/>
<polyline points="146.45 91.73 188.32 85.55" stroke="black" fill="none" stroke-width="1.00"/>
<polyline points="133.75 113.39 132.88 75.48" stroke="black" fill="none" stroke-width="1.00"/>
<polyline points="146.91 131.71 146.45 91.73" stroke="black" fill="none" stroke-width="1.00"/>
<polyline points="171.96 107.30 172.35 70.09" stroke="black" fill="none" stroke-width="1.00"/>
<polyline points="187.38 124.75 188.32 85.55" stroke="black" fill="none" stroke-width="1.00"/>
<polyline points="236.19 88.28 244.57 98.75 245.09 110.31 236.62 121.84 218.99 131.91 193.59 139.00 163.46 141.89 132.83 140.04 106.06 133.79 86.53 124.26" stroke="black" fill="none" stroke-width="0.20"/>
<polyline points="250.03 128.73 253.19 89.09 221.30 113.97 219.02 156.63 250.03 128.73" stroke="black" fill="none" stroke-width="1.00"/>
          <animate
              attributeName="display"
              values="none;inline;none;none"
              keyTimes="0;0.30000000000000004;0.4;1"
              dur="3s"
              begin="0s"
              repeatCount="indefinite" />
     </g>
    
<g>
          <path d="M0,200 h128.0 v-5.0 h-128.0 Z" fill="black" stroke="none" fill-opacity="0.2"/>
          <polyline points="16.00 20.00 14.40 6.28" stroke="rgb(255, 0, 0)" fill="none" stroke-width="1.00"/>
<polyline points="16.00 20.00 30.20 18.63" stroke="rgb(0, 255, 0)" fill="none" stroke-width="1.00"/>
<polyline points="16.00 20.00 17.65 23.88" stroke="rgb(0, 0, 255)" fill="none" stroke-width="1.00"/>
<polyline points="133.75 113.39 146.91 131.71" stroke="black" fill="none" stroke-width="1.00"/>
<polyline points="171.96 107.30 187.38 124.75" stroke="black" fill="none" stroke-width="1.00"/>
<polyline points="132.88 75.48 146.45 91.73" stroke="black" fill="none" stroke-width="1.00"/>
<polyline points="172.35 70.09 188.32 85.55" stroke="black" fill="none" stroke-width="1.00"/>
<polyline points="133.75 113.39 171.96 107.30" stroke="black" fill="none" stroke-width="1.00"/>
<polyline points="146.91 131.71 187.38 124.75" stroke="black" fill="none" stroke-width="1.00"/>
<polyline points="132.88 75.48 172.35 70.09" stroke="black" fill="none" stroke-width="1.00"/>
<polyline points="146.45 91.73 188.32 85.55" stroke="black" fill="none" stroke-width="1.00"/>
<polyline points="133.75 113.39 132.88 75.48" stroke="black" fill="none" stroke-width="1.00"/>
<polyline points="146.91 131.71 146.45 91.73" stroke="black" fill="none" stroke-width="1.00"/>
<polyline points="171.96 107.30 172.35 70.09" stroke="black" fill="none" stroke-width="1.00"/>
<polyline points="187.38 124.75 188.32 85.55" stroke="black" fill="none" stroke-width="1.00"/>
<polyline points="236.19 88.28 244.57 98.75 245.09 110.31 236.62 121.84 218.99 131.91 193.59 139.00 163.46 141.89 132.83 140.04 106.06 133.79 86.53 124.26" stroke="black" fill="none" stroke-width="0.20"/>
<polyline points="242.68 141.93 245.73 100.84 192.49 120.71 191.25 164.15 242.68 141.93" stroke="black" fill="none" stroke-width="1.00"/>
          <animate
              attributeName="display"
              values="none;inline;none;none"
              keyTimes="0;0.4;0.5;1"
              dur="3s"
              begin="0s"
              repeatCount="indefinite" />
     </g>
    
<g>
          <path d="M0,200 h160.0 v-5.0 h-160.0 Z" fill="black" stroke="none" fill-opacity="0.2"/>
          <polyline points="16.00 20.00 14.40 6.28" stroke="rgb(255, 0, 0)" fill="none" stroke-width="1.00"/>
<polyline points="16.00 20.00 30.20 18.63" stroke="rgb(0, 255, 0)" fill="none" stroke-width="1.00"/>
<polyline points="16.00 20.00 17.65 23.88" stroke="rgb(0, 0, 255)" fill="none" stroke-width="1.00"/>
<polyline points="133.75 113.39 146.91 131.71" stroke="black" fill="none" stroke-width="1.00"/>
<polyline points="171.96 107.30 187.38 124.75" stroke="black" fill="none" stroke-width="1.00"/>
<polyline points="132.88 75.48 146.45 91.73" stroke="black" fill="none" stroke-width="1.00"/>
<polyline points="172.35 70.09 188.32 85.55" stroke="black" fill="none" stroke-width="1.00"/>
<polyline points="133.75 113.39 171.96 107.30" stroke="black" fill="none" stroke-width="1.00"/>
<polyline points="146.91 131.71 187.38 124.75" stroke="black" fill="none" stroke-width="1.00"/>
<polyline points="132.88 75.48 172.35 70.09" stroke="black" fill="none" stroke-width="1.00"/>
<polyline points="146.45 91.73 188.32 85.55" stroke="black" fill="none" stroke-width="1.00"/>
<polyline points="133.75 113.39 132.88 75.48" stroke="black" fill="none" stroke-width="1.00"/>
<polyline points="146.91 131.71 146.45 91.73" stroke="black" fill="none" stroke-width="1.00"/>
<polyline points="171.96 107.30 172.35 70.09" stroke="black" fill="none" stroke-width="1.00"/>
<polyline points="187.38 124.75 188.32 85.55" stroke="black" fill="none" stroke-width="1.00"/>
<polyline points="236.19 88.28 244.57 98.75 245.09 110.31 236.62 121.84 218.99 131.91 193.59 139.00 163.46 141.89 132.83 140.04 106.06 133.79 86.53 124.26" stroke="black" fill="none" stroke-width="0.20"/>
<polyline points="225.55 153.76 228.07 111.40 158.94 123.00 158.98 166.71 225.55 153.76" stroke="black" fill="none" stroke-width="1.00"/>
          <animate
              attributeName="display"
              values="none;inline;none;none"
              keyTimes="0;0.5;0.6000000000000001;1"
              dur="3s"
              begin="0s"
              repeatCount="indefinite" />
     </g>
    
<g>
          <path d="M0,200 h192.00000000000003 v-5.0 h-192.00000000000003 Z" fill="black" stroke="none" fill-opacity="0.2"/>
          <polyline points="16.00 20.00 14.40 6.28" stroke="rgb(255, 0, 0)" fill="none" stroke-width="1.00"/>
<polyline points="16.00 20.00 30.20 18.63" stroke="rgb(0, 255, 0)" fill="none" stroke-width="1.00"/>
<polyline points="16.00 20.00 17.65 23.88" stroke="rgb(0, 0, 255)" fill="none" stroke-width="1.00"/>
<polyline points="133.75 113.39 146.91 131.71" stroke="black" fill="none" stroke-width="1.00"/>
<polyline points="171.96 107.30 187.38 124.75" stroke="black" fill="none" stroke-width="1.00"/>
<polyline points="132.88 75.48 146.45 91.73" stroke="black" fill="none" stroke-width="1.00"/>
<polyline points="172.35 70.09 188.32 85.55" stroke="black" fill="none" stroke-width="1.00"/>
<polyline points="133.75 113.39 171.96 107.30" stroke="black" fill="none" stroke-width="1.00"/>
<polyline points="146.91 131.71 187.38 124.75" stroke="black" fill="none" stroke-width="1.00"/>
<polyline points="132.88 75.48 172.35 70.09" stroke="black" fill="none" stroke-width="1.00"/>
<polyline points="146.45 91.73 188.32 85.55" stroke="black" fill="none" stroke-width="1.00"/>
<polyline points="133.75 113.39 132.88 75.48" stroke="black" fill="none" stroke-width="1.00"/>
<polyline points="146.91 131.71 146.45 91.73" stroke="black" fill="none" stroke-width="1.00"/>
<polyline points="171.96 107.30 172.35 70.09" stroke="black" fill="none" stroke-width="1.00"/>
<polyline points="187.38 124.75 188.32 85.55" stroke="black" fill="none" stroke-width="1.00"/>
<polyline points="236.19 88.28 244.57 98.75 245.09 110.31 236.62 121.84 218.99 131.91 193.59 139.00 163.46 141.89 132.83 140.04 106.06 133.79 86.53 124.26" stroke="black" fill="none" stroke-width="0.20"/>
<polyline points="199.78 162.47 201.35 119.20 125.55 120.41 126.86 163.82 199.78 162.47" stroke="black" fill="none" stroke-width="1.00"/>
          <animate
              attributeName="display"
              values="none;inline;none;none"
              keyTimes="0;0.6000000000000001;0.7000000000000001;1"
              dur="3s"
              begin="0s"
              repeatCount="indefinite" />
     </g>
    
<g>
          <path d="M0,200 h224.00000000000003 v-5.0 h-224.00000000000003 Z" fill="black" stroke="none" fill-opacity="0.2"/>
          <polyline points="16.00 20.00 14.40 6.28" stroke="rgb(255, 0, 0)" fill="none" stroke-width="1.00"/>
<polyline points="16.00 20.00 30.20 18.63" stroke="rgb(0, 255, 0)" fill="none" stroke-width="1.00"/>
<polyline points="16.00 20.00 17.65 23.88" stroke="rgb(0, 0, 255)" fill="none" stroke-width="1.00"/>
<polyline points="133.75 113.39 146.91 131.71" stroke="black" fill="none" stroke-width="1.00"/>
<polyline points="171.96 107.30 187.38 124.75" stroke="black" fill="none" stroke-width="1.00"/>
<polyline points="132.88 75.48 146.45 91.73" stroke="black" fill="none" stroke-width="1.00"/>
<polyline points="172.35 70.09 188.32 85.55" stroke="black" fill="none" stroke-width="1.00"/>
<polyline points="133.75 113.39 171.96 107.30" stroke="black" fill="none" stroke-width="1.00"/>
<polyline points="146.91 131.71 187.38 124.75" stroke="black" fill="none" stroke-width="1.00"/>
<polyline points="132.88 75.48 172.35 70.09" stroke="black" fill="none" stroke-width="1.00"/>
<polyline points="146.45 91.73 188.32 85.55" stroke="black" fill="none" stroke-width="1.00"/>
<polyline points="133.75 113.39 132.88 75.48" stroke="black" fill="none" stroke-width="1.00"/>
<polyline points="146.91 131.71 146.45 91.73" stroke="black" fill="none" stroke-width="1.00"/>
<polyline points="171.96 107.30 172.35 70.09" stroke="black" fill="none" stroke-width="1.00"/>
<polyline points="187.38 124.75 188.32 85.55" stroke="black" fill="none" stroke-width="1.00"/>
<polyline points="236.19 88.28 244.57 98.75 245.09 110.31 236.62 121.84 218.99 131.91 193.59 139.00 163.46 141.89 132.83 140.04 106.06 133.79 86.53 124.26" stroke="black" fill="none" stroke-width="0.20"/>
<polyline points="168.34 166.53 168.68 122.85 97.17 113.43 99.50 156.03 168.34 166.53" stroke="black" fill="none" stroke-width="1.00"/>
          <animate
              attributeName="display"
              values="none;inline;none;none"
              keyTimes="0;0.7000000000000001;0.8;1"
              dur="3s"
              begin="0s"
              repeatCount="indefinite" />
     </g>
    
<g>
          <path d="M0,200 h256.0 v-5.0 h-256.0 Z" fill="black" stroke="none" fill-opacity="0.2"/>
          <polyline points="16.00 20.00 14.40 6.28" stroke="rgb(255, 0, 0)" fill="none" stroke-width="1.00"/>
<polyline points="16.00 20.00 30.20 18.63" stroke="rgb(0, 255, 0)" fill="none" stroke-width="1.00"/>
<polyline points="16.00 20.00 17.65 23.88" stroke="rgb(0, 0, 255)" fill="none" stroke-width="1.00"/>
<polyline points="133.75 113.39 146.91 131.71" stroke="black" fill="none" stroke-width="1.00"/>
<polyline points="171.96 107.30 187.38 124.75" stroke="black" fill="none" stroke-width="1.00"/>
<polyline points="132.88 75.48 146.45 91.73" stroke="black" fill="none" stroke-width="1.00"/>
<polyline points="172.35 70.09 188.32 85.55" stroke="black" fill="none" stroke-width="1.00"/>
<polyline points="133.75 113.39 171.96 107.30" stroke="black" fill="none" stroke-width="1.00"/>
<polyline points="146.91 131.71 187.38 124.75" stroke="black" fill="none" stroke-width="1.00"/>
<polyline points="132.88 75.48 172.35 70.09" stroke="black" fill="none" stroke-width="1.00"/>
<polyline points="146.45 91.73 188.32 85.55" stroke="black" fill="none" stroke-width="1.00"/>
<polyline points="133.75 113.39 132.88 75.48" stroke="black" fill="none" stroke-width="1.00"/>
<polyline points="146.91 131.71 146.45 91.73" stroke="black" fill="none" stroke-width="1.00"/>
<polyline points="171.96 107.30 172.35 70.09" stroke="black" fill="none" stroke-width="1.00"/>
<polyline points="187.38 124.75 188.32 85.55" stroke="black" fill="none" stroke-width="1.00"/>
<polyline points="236.19 88.28 244.57 98.75 245.09 110.31 236.62 121.84 218.99 131.91 193.59 139.00 163.46 141.89 132.83 140.04 106.06 133.79 86.53 124.26" stroke="black" fill="none" stroke-width="0.20"/>
<polyline points="135.68 165.18 134.72 121.63 77.33 103.34 80.29 144.74 135.68 165.18" stroke="black" fill="none" stroke-width="1.00"/>
          <animate
              attributeName="display"
              values="none;inline;none;none"
              keyTimes="0;0.8;0.9;1"
              dur="3s"
              begin="0s"
              repeatCount="indefinite" />
     </g>
    
<g>
          <path d="M0,200 h288.0 v-5.0 h-288.0 Z" fill="black" stroke="none" fill-opacity="0.2"/>
          <polyline points="16.00 20.00 14.40 6.28" stroke="rgb(255, 0, 0)" fill="none" stroke-width="1.00"/>
<polyline points="16.00 20.00 30.20 18.63" stroke="rgb(0, 255, 0)" fill="none" stroke-width="1.00"/>
<polyline points="16.00 20.00 17.65 23.88" stroke="rgb(0, 0, 255)" fill="none" stroke-width="1.00"/>
<polyline points="133.75 113.39 146.91 131.71" stroke="black" fill="none" stroke-width="1.00"/>
<polyline points="171.96 107.30 187.38 124.75" stroke="black" fill="none" stroke-width="1.00"/>
<polyline points="132.88 75.48 146.45 91.73" stroke="black" fill="none" stroke-width="1.00"/>
<polyline points="172.35 70.09 188.32 85.55" stroke="black" fill="none" stroke-width="1.00"/>
<polyline points="133.75 113.39 171.96 107.30" stroke="black" fill="none" stroke-width="1.00"/>
<polyline points="146.91 131.71 187.38 124.75" stroke="black" fill="none" stroke-width="1.00"/>
<polyline points="132.88 75.48 172.35 70.09" stroke="black" fill="none" stroke-width="1.00"/>
<polyline points="146.45 91.73 188.32 85.55" stroke="black" fill="none" stroke-width="1.00"/>
<polyline points="133.75 113.39 132.88 75.48" stroke="black" fill="none" stroke-width="1.00"/>
<polyline points="146.91 131.71 146.45 91.73" stroke="black" fill="none" stroke-width="1.00"/>
<polyline points="171.96 107.30 172.35 70.09" stroke="black" fill="none" stroke-width="1.00"/>
<polyline points="187.38 124.75 188.32 85.55" stroke="black" fill="none" stroke-width="1.00"/>
<polyline points="236.19 88.28 244.57 98.75 245.09 110.31 236.62 121.84 218.99 131.91 193.59 139.00 163.46 141.89 132.83 140.04 106.06 133.79 86.53 124.26" stroke="black" fill="none" stroke-width="0.20"/>
<polyline points="106.56 158.67 104.48 115.80 67.59 91.72 70.76 131.70 106.56 158.67" stroke="black" fill="none" stroke-width="1.00"/>
          <animate
              attributeName="display"
              values="none;inline;none;none"
              keyTimes="0;0.9;1.0;1"
              dur="3s"
              begin="0s"
              repeatCount="indefinite" />
     </g>
    
        
      <script type="text/ecmascript"><![CDATA[
          function mouse_move_0b92d602bf098d8016370270dcfd46ab14487d059b126d58fc5635a3441d858bb4ff6964b8e68c13fcb0b755539f16f80f70887a00ad57349804172151642026(evt) {
              if (evt.buttons > 0) {
                    var root = document.getElementById('0b92d602bf098d8016370270dcfd46ab14487d059b126d58fc5635a3441d858bb4ff6964b8e68c13fcb0b755539f16f80f70887a00ad57349804172151642026');
                    root.pauseAnimations();
                    var new_time = 3 * evt.layerX / evt.target.getBBox().width;
                    root.setCurrentTime(new_time);
              }
          }
          function on_click_0b92d602bf098d8016370270dcfd46ab14487d059b126d58fc5635a3441d858bb4ff6964b8e68c13fcb0b755539f16f80f70887a00ad57349804172151642026(evt) {
              var root = document.getElementById('0b92d602bf098d8016370270dcfd46ab14487d059b126d58fc5635a3441d858bb4ff6964b8e68c13fcb0b755539f16f80f70887a00ad57349804172151642026');
              //console.log(root);
              root.animationsPaused() ? root.unpauseAnimations() : root.pauseAnimations();
          }
        ]]>
      </script>

    
        <rect x="1" y="1" rx="5" ry="5" onmousemove='mouse_move_0b92d602bf098d8016370270dcfd46ab14487d059b126d58fc5635a3441d858bb4ff6964b8e68c13fcb0b755539f16f80f70887a00ad57349804172151642026(evt)' onclick='on_click_0b92d602bf098d8016370270dcfd46ab14487d059b126d58fc5635a3441d858bb4ff6964b8e68c13fcb0b755539f16f80f70887a00ad57349804172151642026(evt)' width="318" height="198" stroke="gray" fill="transparent" stroke-width="1"/>
    </svg>
    