<svg xmlns="http://www.w3.org/2000/svg" id="322e7b2a7d453d3d77903052d77f936d01a2f812dece4a56d1d49754ad7ffc7195c2dd50bef94cd14d19f50c9313faaa3df9e6eaa26f34266ffaa0981f7db464" height="200" width="320">
      <title>Click to pause/unpause, press and hold to scroll through animation</title>
        <g>
          <path d="M0,200 h0.0 v-5.0 h-0.0 Z" fill="black" stroke="none" fill-opacity="0.2"/>
          <polyline points="16.00 20.00 14.40 6.28" stroke="rgb(255, 0, 0)" fill="none" stroke-width="1.00"/>
<polyline points="16.00 20.00 30.20 18.63" stroke="rgb(0, 255, 0)" fill="none" stroke-width="1.00"/>
<polyline points="16.00 20.00 17.65 23.88" stroke="rgb(0, 0, 255)" fill="none" stroke-width="1.00"/>
<polyline points="86.61 137.43 118.24 201.18" stroke="black" fill="none" stroke-width="1.00"/>
<polyline points="192.11 119.59 242.91 174.97" stroke="black" fill="none" stroke-width="1.00"/>
<polyline points="79.39 27.11 113.11 71.39" stroke="black" fill="none" stroke-width="1.00"/>
<polyline points="195.06 15.06 252.25 52.95" stroke="black" fill="none" stroke-width="1.00"/>
<polyline points="86.61 137.43 192.11 119.59" stroke="black" fill="none" stroke-width="1.00"/>
<polyline points="118.24 201.18 242.91 174.97" stroke="black" fill="none" stroke-width="1.00"/>
<polyline points="79.39 27.11 195.06 15.06" stroke="black" fill="none" stroke-width="1.00"/>
<polyline points="113.11 71.39 252.25 52.95" stroke="black" fill="none" stroke-width="1.00"/>
<polyline points="86.61 137.43 79.39 27.11" stroke="black" fill="none" stroke-width="1.00"/>
<polyline points="118.24 201.18 113.11 71.39" stroke="black" fill="none" stroke-width="1.00"/>
<polyline points="192.11 119.59 195.06 15.06" stroke="black" fill="none" stroke-width="1.00"/>
<polyline points="242.91 174.97 252.25 52.95" stroke="black" fill="none" stroke-width="1.00"/>
<polyline points="147.35 169.03 161.96 191.99" stroke="black" fill="none" stroke-width="1.00"/>
<polyline points="186.49 161.42 203.46 183.26" stroke="black" fill="none" stroke-width="1.00"/>
<polyline points="146.91 131.71 162.03 152.74" stroke="black" fill="none" stroke-width="1.00"/>
<polyline points="187.38 124.75 205.02 144.73" stroke="black" fill="none" stroke-width="1.00"/>
<polyline points="147.35 169.03 186.49 161.42" stroke="black" fill="none" stroke-width="1.00"/>
<polyline points="161.96 191.99 203.46 183.26" stroke="black" fill="none" stroke-width="1.00"/>
<polyline points="146.91 131.71 187.38 124.75" stroke="black" fill="none" stroke-width="1.00"/>
<polyline points="162.03 152.74 205.02 144.73" stroke="black" fill="none" stroke-width="1.00"/>
<polyline points="147.35 169.03 146.91 131.71" stroke="black" fill="none" stroke-width="1.00"/>
<polyline points="161.96 191.99 162.03 152.74" stroke="black" fill="none" stroke-width="1.00"/>
<polyline points="186.49 161.42 187.38 124.75" stroke="black" fill="none" stroke-width="1.00"/>
<polyline points="203.46 183.26 205.02 144.73" stroke="black" fill="none" stroke-width="1.00"/>
<polyline points="175.05 157.36 175.05 157.36 175.05 157.36 175.05 157.36" stroke="black" fill="none" stroke-width="0.20"/>
<polyline points="167.15 165.18 167.40 128.19 183.81 148.68 182.98 187.57 167.15 165.18" stroke="black" fill="none" stroke-width="1.00"/>
          <animate
              attributeName="display"
              values="none;inline;none;none"
              keyTimes="0;0.0;0.25;1"
              dur="3s"
              begin="0s"
              repeatCount="indefinite" />
     </g>
    
<g>
          <path d="M0,200 h80.0 v-5.0 h-80.0 Z" fill="black" stroke="none" fill-opacity="0.2"/>
          <polyline points="16.00 20.00 14.40 6.28" stroke="rgb(255, 0, 0)" fill="none" stroke-width="1.00"/>
<polyline points="16.00 20.00 30.20 18.63" stroke="rgb(0, 255, 0)" fill="none" stroke-width="1.00"/>
<polyline points="16.00 20.00 17.65 23.88" stroke="rgb(0, 0, 255)" fill="none" stroke-width="1.00"/>
<polyline points="86.61 137.43 118.24 201.18" stroke="black" fill="none" stroke-width="1.00"/>
<polyline points="192.11 119.59 242.91 174.97" stroke="black" fill="none" stroke-width="1.00"/>
<polyline points="79.39 27.11 113.11 71.39" stroke="black" fill="none" stroke-width="1.00"/>
<polyline points="195.06 15.06 252.25 52.95" stroke="black" fill="none" stroke-width="1.00"/>
<polyline points="86.61 137.43 192.11 119.59" stroke="black" fill="none" stroke-width="1.00"/>
<polyline points="118.24 201.18 242.91 174.97" stroke="black" fill="none" stroke-width="1.00"/>
<polyline points="79.39 27.11 195.06 15.06" stroke="black" fill="none" stroke-width="1.00"/>
<polyline points="113.11 71.39 252.25 52.95" stroke="black" fill="none" stroke-width="1.00"/>
<polyline points="86.61 137.43 79.39 27.11" stroke="black" fill="none" stroke-width="1.00"/>
<polyline points="118.24 201.18 113.11 71.39" stroke="black" fill="none" stroke-width="1.00"/>
<polyline points="192.11 119.59 195.06 15.06" stroke="black" fill="none" stroke-width="1.00"/>
<polyline points="242.91 174.97 252.25 52.95" stroke="black" fill="none" stroke-width="1.00"/>
<polyline points="147.35 169.03 161.96 191.99" stroke="black" fill="none" stroke-width="1.00"/>
<polyline points="186.49 161.42 203.46 183.26" stroke="black" fill="none" stroke-width="1.00"/>
<polyline points="146.91 131.71 162.03 152.74" stroke="black" fill="none" stroke-width="1.00"/>
<polyline points="187.38 124.75 205.02 144.73" stroke="black" fill="none" stroke-width="1.00"/>
<polyline points="147.35 169.03 186.49 161.42" stroke="black" fill="none" stroke-width="1.00"/>
<polyline points="161.96 191.99 203.46 183.26" stroke="black" fill="none" stroke-width="1.00"/>
<polyline points="146.91 131.71 187.38 124.75" stroke="black" fill="none" stroke-width="1.00"/>
<polyline points="162.03 152.74 205.02 144.73" stroke="black" fill="none" stroke-width="1.00"/>
<polyline points="147.35 169.03 146.91 131.71" stroke="black" fill="none" stroke-width="1.00"/>
<polyline points="161.96 191.99 162.03 152.74" stroke="black" fill="none" stroke-width="1.00"/>
<polyline points="186.49 161.42 187.38 124.75" stroke="black" fill="none" stroke-width="1.00"/>
<polyline points="203.46 183.26 205.02 144.73" stroke="black" fill="none" stroke-width="1.00"/>
<polyline points="175.05 157.36 175.05 157.36 175.05 157.36 175.05 157.36" stroke="black" fill="none" stroke-width="0.20"/>
<polyline points="155.26 171.04 155.10 133.54 196.18 142.75 194.94 181.10 155.26 171.04" stroke="black" fill="none" stroke-width="1.00"/>
          <animate
              attributeName="display"
              values="none;inline;none;none"
              keyTimes="0;0.25;0.5;1"
              dur="3s"
              begin="0s"
              repeatCount="indefinite" />
     </g>
    
<g>
          <path d="M0,200 h160.0 v-5.0 h-160.0 Z" fill="black" stroke="none" fill-opacity="0.2"/>
          <polyline points="16.00 20.00 14.40 6.28" stroke="rgb(255, 0, 0)" fill="none" stroke-width="1.00"/>
<polyline points="16.00 20.00 30.20 18.63" stroke="rgb(0, 255, 0)" fill="none" stroke-width="1.00"/>
<polyline points="16.00 20.00 17.65 23.88" stroke="rgb(0, 0, 255)" fill="none" stroke-width="1.00"/>
<polyline points="86.61 137.43 118.24 201.18" stroke="black" fill="none" stroke-width="1.00"/>
<polyline points="192.11 119.59 242.91 174.97" stroke="black" fill="none" stroke-width="1.00"/>
<polyline points="79.39 27.11 113.11 71.39" stroke="black" fill="none" stroke-width="1.00"/>
<polyline points="195.06 15.06 252.25 52.95" stroke="black" fill="none" stroke-width="1.00"/>
<polyline points="86.61 137.43 192.11 119.59" stroke="black" fill="none" stroke-width="1.00"/>
<polyline points="118.24 201.18 242.91 174.97" stroke="black" fill="none" stroke-width="1.00"/>
<polyline points="79.39 27.11 195.06 15.06" stroke="black" fill="none" stroke-width="1.00"/>
<polyline points="113.11 71.39 252.25 52.95" stroke="black" fill="none" stroke-width="1.00"/>
<polyline points="86.61 137.43 79.39 27.11" stroke="black" fill="none" stroke-width="1.00"/>
<polyline points="118.24 201.18 113.11 71.39" stroke="black" fill="none" stroke-width="1.00"/>
<polyline points="192.11 119.59 195.06 15.06" stroke="black" fill="none" stroke-width="1.00"/>
<polyline points="242.91 174.97 252.25 52.95" stroke="black" fill="none" stroke-width="1.00"/>
<polyline points="147.35 169.03 161.96 191.99" stroke="black" fill="none" stroke-width="1.00"/>
<polyline points="186.49 161.42 203.46 183.26" stroke="black" fill="none" stroke-width="1.00"/>
<polyline points="146.91 131.71 162.03 152.74" stroke="black" fill="none" stroke-width="1.00"/>
<polyline points="187.38 124.75 205.02 144.73" stroke="black" fill="none" stroke-width="1.00"/>
<polyline points="147.35 169.03 186.49 161.42" stroke="black" fill="none" stroke-width="1.00"/>
<polyline points="161.96 191.99 203.46 183.26" stroke="black" fill="none" stroke-width="1.00"/>
<polyline points="146.91 131.71 187.38 124.75" stroke="black" fill="none" stroke-width="1.00"/>
<polyline points="162.03 152.74 205.02 144.73" stroke="black" fill="none" stroke-width="1.00"/>
<polyline points="147.35 169.03 146.91 131.71" stroke="black" fill="none" stroke-width="1.00"/>
<polyline points="161.96 191.99 162.03 152.74" stroke="black" fill="none" stroke-width="1.00"/>
<polyline points="186.49 161.42 187.38 124.75" stroke="black" fill="none" stroke-width="1.00"/>
<polyline points="203.46 183.26 205.02 144.73" stroke="black" fill="none" stroke-width="1.00"/>
<polyline points="175.05 157.36 175.05 157.36 175.05 157.36 175.05 157.36" stroke="black" fill="none" stroke-width="0.20"/>
<polyline points="154.40 180.11 154.20 141.85 195.89 134.40 194.69 171.97 154.40 180.11" stroke="black" fill="none" stroke-width="1.00"/>
          <animate
              attributeName="display"
              values="none;inline;none;none"
              keyTimes="0;0.5;0.75;1"
              dur="3s"
              begin="0s"
              repeatCount="indefinite" />
     </g>
    
<g>
          <path d="M0,200 h240.0 v-5.0 h-240.0 Z" fill="black" stroke="none" fill-opacity="0.2"/>
          <polyline points="16.00 20.00 14.40 6.28" stroke="rgb(255, 0, 0)" fill="none" stroke-width="1.00"/>
<polyline points="16.00 20.00 30.20 18.63" stroke="rgb(0, 255, 0)" fill="none" stroke-width="1.00"/>
<polyline points="16.00 20.00 17.65 23.88" stroke="rgb(0, 0, 255)" fill="none" stroke-width="1.00"/>
<polyline points="86.61 137.43 118.24 201.18" stroke="black" fill="none" stroke-width="1.00"/>
<polyline points="192.11 119.59 242.91 174.97" stroke="black" fill="none" stroke-width="1.00"/>
<polyline points="79.39 27.11 113.11 71.39" stroke="black" fill="none" stroke-width="1.00"/>
<polyline points="195.06 15.06 252.25 52.95" stroke="black" fill="none" stroke-width="1.00"/>
<polyline points="86.61 137.43 192.11 119.59" stroke="black" fill="none" stroke-width="1.00"/>
<polyline points="118.24 201.18 242.91 174.97" stroke="black" fill="none" stroke-width="1.00"/>
<polyline points="79.39 27.11 195.06 15.06" stroke="black" fill="none" stroke-width="1.00"/>
<polyline points="113.11 71.39 252.25 52.95" stroke="black" fill="none" stroke-width="1.00"/>
<polyline points="86.61 137.43 79.39 27.11" stroke="black" fill="none" stroke-width="1.00"/>
<polyline points="118.24 201.18 113.11 71.39" stroke="black" fill="none" stroke-width="1.00"/>
<polyline points="192.11 119.59 195.06 15.06" stroke="black" fill="none" stroke-width="1.00"/>
<polyline points="242.91 174.97 252.25 52.95" stroke="black" fill="none" stroke-width="1.00"/>
<polyline points="147.35 169.03 161.96 191.99" stroke="black" fill="none" stroke-width="1.00"/>
<polyline points="186.49 161.42 203.46 183.26" stroke="black" fill="none" stroke-width="1.00"/>
<polyline points="146.91 131.71 162.03 152.74" stroke="black" fill="none" stroke-width="1.00"/>
<polyline points="187.38 124.75 205.02 144.73" stroke="black" fill="none" stroke-width="1.00"/>
<polyline points="147.35 169.03 186.49 161.42" stroke="black" fill="none" stroke-width="1.00"/>
<polyline points="161.96 191.99 203.46 183.26" stroke="black" fill="none" stroke-width="1.00"/>
<polyline points="146.91 131.71 187.38 124.75" stroke="black" fill="none" stroke-width="1.00"/>
<polyline points="162.03 152.74 205.02 144.73" stroke="black" fill="none" stroke-width="1.00"/>
<polyline points="147.35 169.03 146.91 131.71" stroke="black" fill="none" stroke-width="1.00"/>
<polyline points="161.96 191.99 162.03 152.74" stroke="black" fill="none" stroke-width="1.00"/>
<polyline points="186.49 161.42 187.38 124.75" stroke="black" fill="none" stroke-width="1.00"/>
<polyline points="203.46 183.26 205.02 144.73" stroke="black" fill="none" stroke-width="1.00"/>
<polyline points="175.05 157.36 175.05 157.36 175.05 157.36 175.05 157.36" stroke="black" fill="none" stroke-width="0.20"/>
<polyline points="165.85 187.14 166.06 148.29 183.96 128.53 183.18 165.55 165.85 187.14" stroke="black" fill="none" stroke-width="1.00"/>
          <animate
              attributeName="display"
              values="none;inline;none;none"
              keyTimes="0;0.75;1.0;1"
              dur="3s"
              begin="0s"
              repeatCount="indefinite" />
     </g>
    
        
      <script type="text/ecmascript"><![CDATA[
          function mouse_move_322e7b2a7d453d3d77903052d77f936d01a2f812dece4a56d1d49754ad7ffc7195c2dd50bef94cd14d19f50c9313faaa3df9e6eaa26f34266ffaa0981f7db464(evt) {
              if (evt.buttons > 0) {
                    var root = document.getElementById('322e7b2a7d453d3d77903052d77f936d01a2f812dece4a56d1d49754ad7ffc7195c2dd50bef94cd14d19f50c9313faaa3df9e6eaa26f34266ffaa0981f7db464');
                    root.pauseAnimations();
                    var new_time = 3 * evt.layerX / evt.target.getBBox().width;
                    root.setCurrentTime(new_time);
              }
          }
          function on_click_322e7b2a7d453d3d77903052d77f936d01a2f812dece4a56d1d49754ad7ffc7195c2dd50bef94cd14d19f50c9313faaa3df9e6eaa26f34266ffaa0981f7db464(evt) {
              var root = document.getElementById('322e7b2a7d453d3d77903052d77f936d01a2f812dece4a56d1d49754ad7ffc7195c2dd50bef94cd14d19f50c9313faaa3df9e6eaa26f34266ffaa0981f7db464');
              //console.log(root);
              root.animationsPaused() ? root.unpauseAnimations() : root.pauseAnimations();
          }
        ]]>
      </script>

    
        <rect x="1" y="1" rx="5" ry="5" onmousemove='mouse_move_322e7b2a7d453d3d77903052d77f936d01a2f812dece4a56d1d49754ad7ffc7195c2dd50bef94cd14d19f50c9313faaa3df9e6eaa26f34266ffaa0981f7db464(evt)' onclick='on_click_322e7b2a7d453d3d77903052d77f936d01a2f812dece4a56d1d49754ad7ffc7195c2dd50bef94cd14d19f50c9313faaa3df9e6eaa26f34266ffaa0981f7db464(evt)' width="318" height="198" stroke="gray" fill="transparent" stroke-width="1"/>
    </svg>
    